<?xml version="1.0" encoding="UTF-8"?>
<svg xmlns="http://www.w3.org/2000/svg" xmlns:xlink="http://www.w3.org/1999/xlink" width="1024pt" height="1024pt" viewBox="0 0 1024 1024" version="1.1">
<g id="surface1">
<path style=" stroke:none;fill-rule:nonzero;fill:rgb(0%,0%,0%);fill-opacity:1;" d="M 440.6875 256.214844 C 403.011719 258.398438 373.378906 276.542969 353.753906 293.988281 C 347.054688 299.90625 341.574219 307.375 338.613281 315.941406 C 335.8125 324.199219 335.1875 332.628906 337.058594 340.574219 C 339.238281 349.605469 344.378906 357.550781 351.074219 362.378906 C 352.945312 363.78125 355.769531 363.324219 357.015625 361.453125 C 367.292969 346.8125 383.804688 336.335938 399.070312 334.78125 C 401.40625 334.46875 403.605469 335.910156 404.230469 338.089844 C 405.007812 341.050781 403.101562 343.824219 400.140625 343.980469 C 387.367188 345.382812 373.535156 354.289062 364.65625 366.90625 C 358.738281 375.316406 356.246094 383.71875 357.648438 390.417969 C 358.113281 392.753906 357.160156 395.226562 354.824219 396.160156 C 354.199219 396.316406 353.742188 396.5 353.121094 396.5 C 350.9375 396.5 349.058594 395.082031 348.59375 392.898438 C 347.503906 388.539062 347.6875 383.71875 348.933594 378.734375 C 349.710938 375.621094 348.464844 372.339844 345.820312 370.3125 C 337.097656 364.082031 330.554688 354.125 327.90625 342.910156 C 327.125 339.792969 326.640625 336.679688 326.640625 333.5625 C 326.484375 329.511719 322.890625 326.699219 318.996094 327.476562 C 303.734375 330.90625 271.1875 344.28125 241.75 386.960938 C 220.71875 419.984375 211.695312 457.054688 215.902344 476.527344 C 216.367188 481.042969 217.605469 485.25 219.164062 488.988281 C 220.71875 492.570312 225.082031 493.980469 228.507812 491.957031 C 237.386719 486.660156 246.089844 484.175781 253.722656 483.242188 C 269.144531 481.21875 282.402344 485.113281 290.8125 488.695312 C 295.953125 490.875 300.78125 493.523438 304.832031 496.484375 C 307.480469 498.351562 311.199219 497.582031 312.914062 494.777344 C 316.964844 488.082031 322.140625 482.472656 327.90625 478.425781 C 329.773438 477.179688 332.382812 477.148438 333.941406 478.863281 C 336.121094 481.042969 335.695312 484.507812 333.359375 486.066406 C 322.765625 493.230469 314.636719 507.699219 312.765625 522.964844 C 311.519531 533.085938 313.226562 541.820312 317.585938 546.960938 C 319.144531 548.828125 319.484375 551.46875 317.925781 553.335938 C 316.992188 554.425781 315.726562 554.894531 314.324219 554.894531 C 313.078125 554.894531 311.851562 554.425781 310.917969 553.335938 C 304.53125 546.171875 301.863281 534.9375 303.421875 521.699219 C 303.734375 519.203125 304.210938 516.886719 304.832031 514.394531 C 305.613281 511.4375 304.6875 508.144531 302.351562 506.121094 C 292.847656 497.867188 274.292969 489.949219 255.132812 492.441406 C 254.355469 492.597656 253.578125 492.578125 252.796875 492.734375 C 235.507812 495.695312 221.023438 507.6875 213.855469 523.886719 C 207.316406 538.839844 203.730469 555.226562 203.730469 572.515625 C 203.730469 642.140625 262.621094 698.488281 335.207031 698.488281 C 372.125 698.488281 405.613281 683.847656 429.445312 660.328125 C 430.847656 659.082031 430.535156 656.597656 428.664062 655.507812 C 425.394531 653.640625 422.414062 651.605469 419.613281 649.425781 C 417.898438 648.023438 417.148438 645.414062 418.394531 643.386719 C 419.953125 640.742188 423.222656 640.261719 425.40625 641.976562 C 430.699219 646.492188 450.648438 659.589844 468.871094 659.742188 C 489.433594 659.898438 506.257812 642.570312 506.257812 621.386719 C 506.257812 617.023438 505.457031 612.820312 504.210938 608.925781 C 499.851562 598.644531 491.449219 591.207031 479.144531 586.535156 C 452.507812 576.410156 414.667969 582.765625 392.546875 593.980469 C 370.585938 605.039062 356.246094 625.320312 356.089844 625.476562 L 355.3125 626.546875 C 353.910156 628.570312 350.785156 628.726562 349.226562 626.546875 L 348.445312 625.476562 C 330.535156 600.398438 287.066406 590.417969 262.144531 605.371094 C 259.964844 606.617188 257.167969 606.132812 255.765625 604.105469 C 254.210938 601.925781 254.84375 598.839844 257.179688 597.4375 C 282.878906 581.707031 323.992188 588.53125 347.667969 610.335938 C 350.316406 612.671875 354.191406 612.539062 356.527344 610.046875 C 363.382812 602.566406 374.449219 592.425781 388.3125 585.414062 C 412.769531 573.109375 452.964844 566.421875 482.40625 577.480469 C 490.660156 580.59375 497.503906 584.976562 502.800781 590.429688 C 503.113281 589.492188 503.609375 588.394531 503.917969 587.460938 C 501.894531 544.3125 484.605469 519.050781 450.179688 508.457031 C 447.6875 507.679688 446.101562 505.195312 446.726562 502.859375 C 447.347656 500.210938 450.015625 498.671875 452.664062 499.453125 C 468.863281 504.28125 481.605469 512.195312 491.265625 523.253906 C 493.132812 525.28125 496.421875 525.300781 497.980469 522.964844 C 502.964844 516.109375 506.257812 506.441406 506.257812 495.851562 C 506.257812 488.21875 504.53125 481.238281 501.730469 475.164062 C 501.574219 474.851562 501.398438 474.5 501.242188 474.1875 C 501.242188 474.1875 501.242188 474.199219 501.242188 474.042969 C 500.621094 472.953125 500.171875 471.871094 499.394531 470.78125 C 498.769531 469.691406 498.15625 468.621094 497.6875 467.375 C 493.015625 460.519531 485.363281 454.746094 475.394531 450.386719 C 456.859375 442.441406 434.417969 441.507812 419.464844 448.050781 C 402.175781 455.683594 389.394531 471.25 386.121094 488.695312 C 383.941406 500.066406 385.050781 517.210938 402.1875 534.5 C 404.054688 536.367188 404.210938 539.640625 402.1875 541.507812 C 401.25 542.289062 400.160156 542.578125 399.070312 542.578125 C 397.824219 542.578125 396.742188 542.101562 395.808594 541.167969 C 380.078125 525.4375 373.535156 506.304688 377.117188 486.992188 C 377.894531 482.941406 378.96875 479.046875 380.523438 475.308594 C 382.082031 471.570312 381.789062 467.199219 379.453125 463.773438 C 379.140625 463.304688 378.96875 463.148438 378.96875 462.992188 C 373.046875 453.335938 342.539062 416.417969 281.324219 423.273438 C 278.519531 423.585938 275.851562 421.269531 276.164062 418.308594 C 276.320312 415.972656 278.207031 414.230469 280.542969 414.074219 C 336.464844 408 372.257812 436.835938 386.121094 455.839844 C 387.679688 458.019531 390.972656 458.15625 392.839844 456.128906 C 399.226562 449.121094 407.023438 443.378906 416.058594 439.484375 C 433.191406 432.007812 458.574219 432.941406 479.289062 441.820312 C 486.765625 444.933594 492.988281 448.972656 498.128906 453.648438 C 498.59375 452.714844 499.070312 451.613281 499.539062 450.679688 C 503.746094 443.980469 506.257812 435.257812 506.257812 425.757812 C 506.257812 415.164062 503.121094 405.652344 497.980469 398.644531 C 497.824219 398.488281 497.84375 398.359375 497.6875 398.207031 C 495.042969 394.46875 490.328125 392.566406 485.8125 393.96875 C 479.894531 395.839844 473.816406 396.648438 467.898438 396.648438 C 459.175781 396.648438 450.921875 394.945312 444.535156 392.605469 C 442.355469 391.828125 440.953125 389.636719 441.417969 387.300781 C 441.886719 384.34375 445.003906 382.765625 447.648438 383.699219 C 459.488281 388.21875 477.441406 389.335938 490.679688 381.703125 C 491.613281 381.082031 492.519531 380.429688 493.453125 379.804688 C 496.570312 377.46875 499.082031 374.519531 500.949219 371.09375 C 504.066406 364.863281 506.0625 357.238281 506.0625 349.140625 L 506.0625 348.992188 C 506.0625 342.453125 503.746094 335.871094 499.539062 330.886719 C 484.585938 312.816406 466.050781 305.671875 444.242188 309.566406 C 441.90625 310.03125 439.570312 308.921875 438.789062 306.742188 C 437.699219 303.9375 439.433594 300.988281 442.394531 300.367188 C 463.109375 296.628906 481.625 301.621094 497.203125 315.015625 C 499.226562 316.886719 502.519531 315.816406 503.140625 313.167969 C 503.609375 310.675781 504.074219 307.21875 503.917969 302.703125 C 503.296875 277 494.71875 258.804688 457.335938 256.3125 C 451.632812 255.925781 446.070312 255.90625 440.6875 256.214844 Z M 583.3125 256.214844 C 577.929688 255.90625 572.367188 255.925781 566.664062 256.3125 C 529.28125 258.804688 520.703125 277 520.082031 302.703125 C 519.925781 307.21875 520.390625 310.675781 520.859375 313.167969 C 521.480469 315.816406 524.773438 316.886719 526.796875 315.015625 C 542.375 301.621094 560.890625 296.628906 581.605469 300.367188 C 584.566406 300.988281 586.300781 303.9375 585.210938 306.742188 C 584.429688 308.921875 582.09375 310.03125 579.757812 309.566406 C 557.949219 305.671875 539.414062 312.816406 524.460938 330.886719 C 520.253906 335.871094 517.9375 342.449219 517.9375 348.992188 L 517.9375 349.140625 C 517.9375 357.238281 519.933594 364.863281 523.050781 371.09375 C 524.917969 374.519531 527.429688 377.46875 530.546875 379.804688 C 531.480469 380.429688 532.386719 381.082031 533.320312 381.703125 C 546.558594 389.335938 564.511719 388.21875 576.351562 383.699219 C 579 382.765625 582.113281 384.34375 582.582031 387.300781 C 583.046875 389.636719 581.644531 391.828125 579.464844 392.605469 C 573.078125 394.945312 564.824219 396.648438 556.101562 396.648438 C 550.183594 396.648438 544.105469 395.839844 538.1875 393.96875 C 533.671875 392.570312 528.957031 394.464844 526.3125 398.207031 C 526.15625 398.359375 526.175781 398.488281 526.019531 398.644531 C 520.878906 405.652344 517.742188 415.164062 517.742188 425.757812 C 517.742188 435.257812 520.253906 443.980469 524.460938 450.679688 C 524.929688 451.613281 525.40625 452.714844 525.871094 453.648438 C 531.011719 448.972656 537.234375 444.933594 544.710938 441.820312 C 565.425781 432.941406 590.808594 432.007812 607.941406 439.484375 C 616.976562 443.378906 624.773438 449.121094 631.160156 456.128906 C 633.027344 458.15625 636.320312 458.019531 637.878906 455.839844 C 651.742188 436.835938 687.535156 408 743.457031 414.074219 C 745.792969 414.230469 747.679688 415.972656 747.835938 418.308594 C 748.148438 421.269531 745.480469 423.585938 742.675781 423.273438 C 681.460938 416.417969 650.953125 453.335938 645.03125 462.992188 C 645.03125 463.148438 644.855469 463.304688 644.546875 463.773438 C 642.210938 467.199219 641.917969 471.570312 643.476562 475.308594 C 645.03125 479.046875 646.105469 482.941406 646.882812 486.992188 C 650.464844 506.304688 643.921875 525.4375 628.191406 541.167969 C 627.257812 542.101562 626.175781 542.578125 624.929688 542.578125 C 623.839844 542.578125 622.75 542.289062 621.8125 541.507812 C 619.789062 539.640625 619.945312 536.367188 621.8125 534.5 C 638.949219 517.210938 640.058594 500.066406 637.878906 488.695312 C 634.605469 471.25 621.824219 455.683594 604.535156 448.050781 C 589.582031 441.507812 567.140625 442.441406 548.605469 450.386719 C 538.636719 454.746094 530.984375 460.519531 526.3125 467.375 C 525.84375 468.621094 525.230469 469.691406 524.605469 470.78125 C 523.828125 471.871094 523.378906 472.953125 522.757812 474.042969 C 522.757812 474.199219 522.757812 474.1875 522.757812 474.1875 C 522.601562 474.5 522.425781 474.851562 522.269531 475.164062 C 519.46875 481.238281 517.742188 488.21875 517.742188 495.851562 C 517.742188 506.441406 521.035156 516.109375 526.019531 522.964844 C 527.578125 525.300781 530.867188 525.28125 532.734375 523.253906 C 542.394531 512.195312 555.136719 504.28125 571.335938 499.453125 C 573.984375 498.671875 576.652344 500.210938 577.273438 502.859375 C 577.898438 505.195312 576.3125 507.679688 573.820312 508.457031 C 539.394531 519.050781 522.105469 544.3125 520.082031 587.460938 C 520.390625 588.394531 520.886719 589.492188 521.199219 590.429688 C 526.496094 584.976562 533.339844 580.59375 541.59375 577.480469 C 571.035156 566.421875 611.230469 573.109375 635.6875 585.414062 C 649.550781 592.425781 660.617188 602.566406 667.472656 610.046875 C 669.808594 612.539062 673.683594 612.671875 676.332031 610.335938 C 700.007812 588.53125 741.121094 581.707031 766.820312 597.4375 C 769.15625 598.839844 769.789062 601.925781 768.234375 604.105469 C 766.832031 606.132812 764.035156 606.617188 761.855469 605.371094 C 736.933594 590.417969 693.464844 600.398438 675.554688 625.476562 L 674.773438 626.546875 C 673.214844 628.726562 670.089844 628.570312 668.6875 626.546875 L 667.910156 625.476562 C 667.753906 625.320312 653.414062 605.039062 631.453125 593.980469 C 609.332031 582.765625 571.492188 576.410156 544.855469 586.535156 C 532.550781 591.207031 524.148438 598.644531 519.789062 608.925781 C 518.542969 612.820312 517.742188 617.023438 517.742188 621.386719 C 517.742188 642.570312 534.566406 659.898438 555.128906 659.742188 C 573.351562 659.589844 593.300781 646.492188 598.59375 641.976562 C 600.777344 640.261719 604.046875 640.742188 605.605469 643.386719 C 606.851562 645.414062 606.101562 648.023438 604.386719 649.425781 C 601.585938 651.605469 598.605469 653.640625 595.335938 655.507812 C 593.464844 656.597656 593.152344 659.082031 594.554688 660.328125 C 618.386719 683.847656 651.875 698.488281 688.792969 698.488281 C 761.378906 698.488281 820.269531 642.140625 820.269531 572.515625 C 820.269531 555.226562 816.683594 538.839844 810.144531 523.886719 C 802.976562 507.6875 788.492188 495.695312 771.203125 492.734375 C 770.421875 492.578125 769.644531 492.597656 768.867188 492.441406 C 749.707031 489.949219 731.152344 497.867188 721.648438 506.121094 C 719.3125 508.144531 718.386719 511.4375 719.167969 514.394531 C 719.789062 516.886719 720.265625 519.207031 720.578125 521.699219 C 722.136719 534.9375 719.46875 546.171875 713.082031 553.335938 C 712.148438 554.425781 710.921875 554.894531 709.675781 554.894531 C 708.273438 554.894531 707.007812 554.425781 706.074219 553.335938 C 704.515625 551.46875 704.855469 548.828125 706.414062 546.960938 C 710.773438 541.820312 712.480469 533.085938 711.234375 522.964844 C 709.363281 507.699219 701.234375 493.230469 690.640625 486.066406 C 688.304688 484.507812 687.878906 481.042969 690.058594 478.863281 C 691.617188 477.148438 694.226562 477.179688 696.09375 478.425781 C 701.855469 482.472656 707.035156 488.082031 711.085938 494.777344 C 712.800781 497.582031 716.519531 498.351562 719.167969 496.484375 C 723.214844 493.523438 728.046875 490.875 733.1875 488.695312 C 741.597656 485.113281 754.855469 481.21875 770.277344 483.242188 C 777.910156 484.175781 786.613281 486.660156 795.492188 491.957031 C 798.917969 493.980469 803.28125 492.570312 804.835938 488.988281 C 806.394531 485.25 807.632812 481.042969 808.097656 476.527344 C 812.304688 457.054688 803.28125 419.984375 782.25 386.960938 C 752.8125 344.28125 720.265625 330.90625 705.003906 327.476562 C 701.109375 326.699219 697.515625 329.511719 697.359375 333.5625 C 697.359375 336.679688 696.875 339.792969 696.09375 342.910156 C 693.445312 354.125 686.902344 364.082031 678.179688 370.3125 C 675.535156 372.339844 674.289062 375.621094 675.066406 378.734375 C 676.3125 383.71875 676.496094 388.539062 675.40625 392.898438 C 674.941406 395.082031 673.0625 396.5 670.878906 396.5 C 670.257812 396.5 669.800781 396.316406 669.175781 396.160156 C 666.839844 395.226562 665.886719 392.753906 666.351562 390.417969 C 667.753906 383.71875 665.261719 375.316406 659.34375 366.90625 C 650.464844 354.289062 636.632812 345.382812 623.859375 343.980469 C 620.898438 343.824219 618.992188 341.050781 619.769531 338.089844 C 620.394531 335.910156 622.59375 334.46875 624.929688 334.78125 C 640.195312 336.335938 656.707031 346.8125 666.984375 361.453125 C 668.230469 363.324219 671.054688 363.78125 672.925781 362.378906 C 679.621094 357.550781 684.761719 349.605469 686.941406 340.574219 C 688.8125 332.628906 688.1875 324.199219 685.386719 315.941406 C 682.425781 307.375 676.945312 299.90625 670.246094 293.988281 C 650.621094 276.542969 620.988281 258.398438 583.3125 256.214844 Z M 512.144531 647.28125 C 503.578125 661.925781 487.992188 671.71875 470.234375 671.71875 C 464.003906 671.71875 457.785156 670.453125 452.175781 668.117188 C 447.035156 666.089844 441.128906 667.054688 437.234375 670.792969 C 410.597656 696.027344 374.3125 710.660156 336.617188 710.660156 C 328.050781 710.660156 319.609375 709.871094 311.355469 708.46875 C 332.695312 744.140625 371.65625 768 416.203125 768 C 450.472656 768 480.390625 753.804688 502.507812 730.910156 C 505.15625 728.105469 508.710938 726.722656 512.292969 726.722656 C 515.875 726.722656 519.476562 728.105469 522.125 730.910156 C 544.242188 753.804688 574.160156 768 608.429688 768 C 652.976562 768 691.886719 744.140625 713.226562 708.46875 C 705.128906 709.871094 696.738281 710.660156 688.015625 710.660156 C 649.851562 710.660156 613.539062 696.027344 587.058594 670.792969 C 583.007812 666.898438 577.253906 665.933594 572.117188 668.117188 C 566.351562 670.453125 560.289062 671.71875 554.054688 671.71875 C 536.300781 671.71875 520.714844 661.925781 512.144531 647.28125 Z M 512.144531 647.28125 "/>
</g>
</svg>
