<?xml version="1.0" encoding="UTF-8"?>
<svg xmlns="http://www.w3.org/2000/svg" xmlns:xlink="http://www.w3.org/1999/xlink" width="1024pt" height="1024pt" viewBox="0 0 1024 1024" version="1.1">
<g id="surface1">
<path style=" stroke:none;fill-rule:nonzero;fill:rgb(0%,0%,0%);fill-opacity:1;" d="M 243.316406 256 C 231.203125 256 221.46875 266.007812 221.898438 278.113281 C 224.523438 352.128906 238.847656 591.078125 315.171875 673.835938 L 113.730469 673.835938 C 107.425781 673.835938 104.773438 678.332031 107.585938 683.976562 C 121.238281 711.417969 199.089844 768 283.933594 768 C 345.351562 768 678.117188 768 739.535156 768 C 824.378906 768 902.230469 711.414062 915.886719 683.976562 C 918.695312 678.332031 916.046875 673.835938 909.738281 673.835938 L 686.5 673.835938 C 696.433594 663.042969 705.359375 649.621094 713.304688 634.234375 C 718.257812 624.632812 728.035156 618.457031 738.839844 618.457031 L 771.15625 618.457031 C 867.261719 618.457031 917.53125 527.367188 917.53125 437.417969 C 917.53125 364.042969 883.039062 325.257812 817.792969 325.257812 L 793.207031 325.257812 C 784.695312 325.257812 777.90625 318.109375 778.378906 309.609375 C 779.066406 297.265625 779.472656 286.597656 779.773438 278.113281 C 780.203125 266.007812 770.535156 256 758.421875 256 Z M 802.269531 366.449219 L 817.792969 366.449219 C 852.925781 366.449219 876.34375 378.523438 876.34375 437.417969 C 876.34375 493.613281 848.328125 577.265625 771.15625 577.265625 L 762.222656 577.265625 C 749.386719 577.265625 740.164062 565.066406 743.527344 552.679688 C 757.4375 501.46875 766.140625 444.464844 771.535156 394.203125 C 773.226562 378.453125 786.429688 366.449219 802.269531 366.449219 Z M 802.269531 366.449219 "/>
</g>
</svg>
