<?xml version="1.0" encoding="UTF-8"?>
<svg xmlns="http://www.w3.org/2000/svg" xmlns:xlink="http://www.w3.org/1999/xlink" width="1024pt" height="1024pt" viewBox="0 0 1024 1024" version="1.1">
<g id="surface1">
<path style=" stroke:none;fill-rule:nonzero;fill:rgb(0%,63.529968%,100%);fill-opacity:1;" d="M 436.261719 212.871094 C 497.851562 274.460938 497.851562 374.316406 436.261719 435.902344 C 374.671875 497.492188 274.820312 497.492188 213.230469 435.902344 C 151.640625 374.316406 151.640625 274.460938 213.230469 212.871094 C 274.820312 151.28125 374.671875 151.28125 436.261719 212.871094 Z M 436.261719 212.871094 "/>
<path style=" stroke:none;fill-rule:nonzero;fill:rgb(0%,63.529968%,100%);fill-opacity:1;" d="M 810.769531 212.871094 C 872.359375 274.460938 872.359375 374.316406 810.769531 435.902344 C 749.179688 497.492188 649.328125 497.492188 587.738281 435.902344 C 526.148438 374.316406 526.148438 274.460938 587.738281 212.871094 C 649.328125 151.28125 749.179688 151.28125 810.769531 212.871094 Z M 810.769531 212.871094 "/>
<path style=" stroke:none;fill-rule:nonzero;fill:rgb(0%,63.529968%,100%);fill-opacity:1;" d="M 436.261719 588.097656 C 497.851562 649.683594 497.851562 749.539062 436.261719 811.128906 C 374.671875 872.71875 274.820312 872.71875 213.230469 811.128906 C 151.640625 749.539062 151.640625 649.683594 213.230469 588.097656 C 274.820312 526.507812 374.671875 526.507812 436.261719 588.097656 Z M 436.261719 588.097656 "/>
<path style=" stroke:none;fill-rule:nonzero;fill:rgb(0%,63.529968%,100%);fill-opacity:1;" d="M 810.769531 588.097656 C 872.359375 649.683594 872.359375 749.539062 810.769531 811.128906 C 749.179688 872.71875 649.328125 872.71875 587.738281 811.128906 C 526.148438 749.539062 526.148438 649.683594 587.738281 588.097656 C 649.328125 526.507812 749.179688 526.507812 810.769531 588.097656 Z M 810.769531 588.097656 "/>
</g>
</svg>
