<?xml version="1.0" encoding="UTF-8"?>
<svg xmlns="http://www.w3.org/2000/svg" xmlns:xlink="http://www.w3.org/1999/xlink" width="1024pt" height="1024pt" viewBox="0 0 1024 1024" version="1.1">
<g id="surface1">
<path style=" stroke:none;fill-rule:nonzero;fill:rgb(0%,0%,0%);fill-opacity:1;" d="M 318.207031 256 C 316.070312 256 314.316406 257.710938 314.316406 259.847656 L 314.316406 764.152344 C 314.316406 766.289062 316.070312 768 318.207031 768 L 705.792969 768 C 707.929688 768 709.683594 766.289062 709.683594 764.152344 L 709.683594 395.726562 C 709.683594 394.972656 709.078125 394.351562 708.3125 394.351562 L 575.269531 394.351562 C 573.132812 394.351562 571.375 392.640625 571.375 390.503906 L 571.375 257.371094 C 571.375 256.621094 570.769531 256 570.003906 256 Z M 589.207031 258.035156 C 588.726562 258.234375 588.367188 258.703125 588.367188 259.320312 L 588.367188 373.515625 C 588.367188 375.652344 590.121094 377.363281 592.261719 377.363281 L 706.367188 377.363281 C 707.597656 377.363281 708.203125 375.882812 707.339844 375.019531 L 590.710938 258.34375 C 590.28125 257.914062 589.6875 257.835938 589.207031 258.035156 Z M 385.992188 441.207031 L 638.007812 441.207031 C 638.632812 441.207031 639.160156 441.734375 639.160156 442.359375 L 639.160156 465.585938 C 639.160156 466.210938 638.632812 466.738281 638.007812 466.738281 L 385.992188 466.738281 C 385.367188 466.738281 384.839844 466.210938 384.839844 465.585938 L 384.839844 442.359375 C 384.839844 441.734375 385.367188 441.207031 385.992188 441.207031 Z M 385.992188 504.832031 L 638.007812 504.832031 C 638.632812 504.832031 639.160156 505.359375 639.160156 505.984375 L 639.160156 529.210938 C 639.160156 529.835938 638.632812 530.316406 638.007812 530.316406 L 385.992188 530.316406 C 385.367188 530.316406 384.839844 529.835938 384.839844 529.210938 L 384.839844 505.984375 C 384.839844 505.359375 385.367188 504.832031 385.992188 504.832031 Z M 385.992188 568.457031 L 638.007812 568.457031 C 638.632812 568.457031 639.160156 568.984375 639.160156 569.605469 L 639.160156 592.835938 C 639.160156 593.457031 638.632812 593.941406 638.007812 593.941406 L 385.992188 593.941406 C 385.367188 593.941406 384.839844 593.457031 384.839844 592.835938 L 384.839844 569.605469 C 384.839844 568.984375 385.367188 568.457031 385.992188 568.457031 Z M 385.992188 632.082031 L 638.007812 632.082031 C 638.632812 632.082031 639.160156 632.609375 639.160156 633.230469 L 639.160156 656.460938 C 639.160156 657.082031 638.632812 657.566406 638.007812 657.566406 L 385.992188 657.566406 C 385.367188 657.566406 384.839844 657.082031 384.839844 656.460938 L 384.839844 633.230469 C 384.839844 632.609375 385.367188 632.082031 385.992188 632.082031 Z M 385.992188 632.082031 "/>
</g>
</svg>
