<?xml version="1.0" encoding="UTF-8"?>
<svg xmlns="http://www.w3.org/2000/svg" xmlns:xlink="http://www.w3.org/1999/xlink" width="1024pt" height="1024pt" viewBox="0 0 1024 1024" version="1.1">
<g id="surface1">
<path style=" stroke:none;fill-rule:nonzero;fill:rgb(0%,0%,0%);fill-opacity:1;" d="M 370.757812 256.011719 C 341.574219 255.609375 312.332031 266.238281 289.949219 288.191406 C 244.738281 332.515625 244.476562 405.375 289.148438 450.046875 L 327.410156 488.269531 C 328.488281 489.34375 330.21875 489.34375 331.292969 488.269531 L 365.195312 454.371094 C 366.269531 453.292969 366.269531 451.5625 365.195312 450.488281 L 326.972656 412.222656 C 303.675781 388.925781 303.402344 351.136719 326.210938 327.535156 C 349.699219 303.226562 389.246094 303.675781 413.144531 327.574219 L 573.878906 488.269531 C 574.957031 489.34375 576.726562 489.34375 577.800781 488.269531 L 611.703125 454.371094 C 612.777344 453.292969 612.777344 451.5625 611.703125 450.488281 L 451.246094 290.03125 C 429.074219 267.859375 399.941406 256.410156 370.757812 256.011719 Z M 653.246094 256.011719 C 624.066406 256.414062 594.921875 267.859375 572.757812 290.03125 L 535.535156 327.253906 C 534.460938 328.328125 534.460938 330.058594 535.535156 331.136719 L 569.476562 365.035156 C 570.550781 366.113281 572.285156 366.113281 573.359375 365.035156 L 611.582031 326.8125 C 634.90625 303.492188 672.707031 303.257812 696.3125 326.09375 C 720.597656 349.582031 720.171875 389.125 696.273438 413.023438 L 535.578125 573.722656 C 534.5 574.796875 534.5 576.566406 535.578125 577.644531 L 569.476562 611.542969 C 570.550781 612.621094 572.285156 612.621094 573.359375 611.542969 L 734.855469 450.046875 C 779.527344 405.375 779.253906 332.53125 734.054688 288.191406 C 711.671875 266.246094 682.429688 255.609375 653.246094 256.011719 Z M 452.566406 411.34375 C 451.859375 411.34375 451.183594 411.648438 450.644531 412.183594 L 290.191406 572.640625 C 245.863281 616.96875 244.445312 689.132812 288.347656 733.898438 C 332.675781 779.09375 405.546875 779.371094 450.207031 734.699219 L 488.429688 696.472656 C 489.503906 695.398438 489.503906 693.628906 488.429688 692.550781 L 454.527344 658.652344 C 453.453125 657.574219 451.722656 657.574219 450.644531 658.652344 L 412.382812 696.914062 C 389.085938 720.210938 351.335938 720.445312 327.730469 697.636719 C 303.421875 674.144531 303.820312 634.601562 327.730469 610.703125 L 488.429688 449.96875 C 489.503906 448.890625 489.503906 447.160156 488.429688 446.085938 L 454.527344 412.183594 C 453.988281 411.648438 453.273438 411.34375 452.566406 411.34375 Z M 448.164062 534.578125 C 447.457031 534.578125 446.742188 534.878906 446.203125 535.417969 L 412.304688 569.320312 C 411.226562 570.394531 411.226562 572.125 412.304688 573.199219 L 572.757812 733.65625 C 617.097656 777.996094 689.292969 779.402344 734.054688 735.496094 C 779.253906 691.171875 779.515625 618.300781 734.855469 573.640625 L 696.632812 535.417969 C 695.558594 534.34375 693.785156 534.34375 692.710938 535.417969 L 658.808594 569.320312 C 657.734375 570.394531 657.734375 572.125 658.808594 573.199219 L 697.03125 611.421875 C 720.34375 634.734375 720.605469 672.535156 697.792969 696.152344 C 674.304688 720.464844 634.761719 720.027344 610.863281 696.113281 L 450.125 535.417969 C 449.585938 534.878906 448.871094 534.578125 448.164062 534.578125 Z M 448.164062 534.578125 "/>
</g>
</svg>
