<?xml version="1.0" encoding="UTF-8"?>
<svg xmlns="http://www.w3.org/2000/svg" xmlns:xlink="http://www.w3.org/1999/xlink" width="1024pt" height="1024pt" viewBox="0 0 1024 1024" version="1.1">
<g id="surface1">
<path style=" stroke:none;fill-rule:nonzero;fill:rgb(0%,0%,0%);fill-opacity:1;" d="M 297.300781 256 C 275.003906 256 256.148438 274.414062 256.101562 296.199219 L 256.101562 332.960938 L 360.261719 332.960938 L 359.980469 403.160156 L 256.101562 403.160156 L 256.101562 614.601562 L 360.261719 614.601562 L 359.980469 684.800781 L 256.101562 684.800781 L 256.101562 727.601562 C 256.074219 738.386719 260.25 748.53125 267.859375 756.160156 C 275.472656 763.789062 285.605469 768 296.378906 768 L 726.660156 768 C 748.820312 768 766.890625 749.960938 766.941406 727.800781 L 767.898438 296.359375 C 767.921875 285.585938 763.75 275.46875 756.140625 267.839844 C 748.527344 260.210938 738.394531 256 727.621094 256 Z M 256.300781 343.960938 L 256.101562 392.199219 L 349.019531 392.199219 L 349.21875 343.960938 Z M 393.101562 432.878906 L 450.421875 457.878906 C 443.441406 466.1875 438.066406 475.894531 434.820312 486.519531 L 381.820312 451.320312 Z M 632.738281 432.878906 L 644.019531 451.320312 L 591.019531 486.519531 C 587.773438 475.894531 582.398438 466.1875 575.421875 457.878906 Z M 512.898438 440.761719 C 551.304688 440.761719 582.460938 471.914062 582.460938 510.320312 C 582.457031 548.726562 551.304688 579.839844 512.898438 579.839844 C 474.496094 579.839844 443.378906 548.726562 443.378906 510.320312 C 443.378906 471.917969 474.496094 440.761719 512.898438 440.761719 Z M 512.898438 471.039062 C 491.242188 471.039062 473.621094 488.664062 473.621094 510.320312 C 473.621094 531.976562 491.242188 549.601562 512.898438 549.601562 C 534.558594 549.601562 552.179688 531.976562 552.179688 510.320312 C 552.179688 488.664062 534.558594 471.039062 512.898438 471.039062 Z M 512.898438 483.199219 C 527.855469 483.199219 540.019531 495.363281 540.019531 510.320312 C 540.019531 525.277344 527.855469 537.441406 512.898438 537.441406 C 497.945312 537.441406 485.78125 525.277344 485.78125 510.320312 C 485.78125 495.363281 497.945312 483.199219 512.898438 483.199219 Z M 496.179688 590.199219 C 501.582031 591.328125 507.167969 591.960938 512.898438 591.960938 C 518.632812 591.960938 524.21875 591.328125 529.621094 590.199219 L 524.179688 646.839844 L 501.621094 646.839844 Z M 256.300781 625.601562 L 256.101562 673.800781 L 349.019531 673.800781 L 349.21875 625.601562 Z M 256.300781 625.601562 "/>
</g>
</svg>
